<svg width="175" height="42" viewBox="0 0 175 42" fill="none" xmlns="http://www.w3.org/2000/svg">
<g clip-path="url(#clip0_63_2366)">
<path d="M28.2517 12.0984C25.9902 18.4319 24.039 19.8474 17.52 19.8517H6.33107C4.84521 24.1794 3.31852 28.2293 2.07349 32.3774C1.31831 34.9134 2.70213 36.8934 5.30647 36.9319C13.2542 37.0516 21.202 36.9746 29.4559 36.9746V9.7207H29.2314C28.9007 10.5204 28.5374 11.2944 28.2517 12.0984ZM22.447 29.8073H12.6256C12.9277 28.4602 13.1808 27.3184 13.4706 26.0269H23.7573C23.2716 27.4467 22.8838 28.5543 22.447 29.8073Z" fill="#38302E"/>
<path d="M32.2358 0V20.2876L39.9917 0H32.2358Z" fill="#38302E"/>
<path d="M18.2505 17.1572C21.5162 17.1785 23.7123 15.5834 24.8635 12.4231C25.0471 11.9313 25.2268 11.4352 25.4064 10.9392C25.4064 10.9392 9.55577 10.9691 5.91458 10.9691C6.3636 9.59636 7.20859 7.74465 7.61271 6.50448H27.1167C27.1257 6.43066 27.145 6.35862 27.1739 6.29065C27.1371 6.32486 27.1208 6.29065 27.2106 6.00412C28.027 3.26718 27.0473 0.115431 24.3736 0.0683902C16.3279 -0.0812862 8.28216 0.0170747 0.0894909 0.0170747C0.0609165 0.106881 0.0282619 0.20096 -0.00439453 0.295042V27.2667H0.477291C1.657 23.9396 2.80814 20.6852 4.06949 17.1358C8.86182 17.1486 13.5562 17.1229 18.2505 17.1572Z" fill="#38302E"/>
</g>
<g clip-path="url(#clip1_63_2366)">
<path d="M49.8943 24.9779C49.812 24.877 49.7238 24.7812 49.63 24.6909C48.3348 23.4372 46.4802 22.8059 44.1145 22.8059H40V37.0075H44.1145C46.4802 37.0075 48.3348 36.3807 49.63 35.1402C50.9251 33.8997 51.5903 32.1471 51.5903 29.9266C51.5913 29.2874 51.5264 28.6497 51.3965 28.0239V7.90242H56.7401V6.53391H51.3877V1.50132H57.511V0.132812H49.8943V24.9779ZM50.0705 29.9266C50.0705 31.7233 49.5639 33.1404 48.5639 34.1381C47.5639 35.1358 46.0617 35.639 44.1145 35.639H41.5022V24.1612H44.1145C46.0617 24.1612 47.5595 24.6689 48.5595 25.671C49.2409 26.378 49.7004 27.2697 49.8811 28.2358V28.8053H49.9824C50.0339 29.1769 50.0619 29.5514 50.0661 29.9266H50.0705Z" fill="#38302E"/>
<path d="M95.2243 12.9698H89.2419V7.90191H94.6472V6.5334H89.2419V1.50523H95.2243V0.136719H87.7441V14.3383H95.2243V12.9698Z" fill="#38302E"/>
<path d="M107.89 13.9852C108.653 14.3257 109.482 14.493 110.317 14.4752C111.157 14.4987 111.989 14.3088 112.735 13.9234C113.37 13.5945 113.902 13.0965 114.273 12.4842C114.617 11.9173 114.8 11.267 114.802 10.6036C114.839 9.837 114.622 9.07957 114.185 8.44932C113.809 7.93948 113.306 7.53758 112.727 7.28389C112.024 6.99783 111.303 6.75892 110.568 6.56873C109.937 6.41173 109.318 6.21263 108.713 5.97277C108.299 5.79879 107.934 5.5242 107.652 5.17373C107.358 4.77875 107.211 4.2929 107.238 3.8008C107.224 3.46768 107.291 3.13617 107.432 2.83423C107.573 2.53229 107.784 2.26876 108.048 2.06589C108.641 1.60667 109.374 1.36794 110.123 1.39046C110.671 1.37578 111.215 1.48756 111.713 1.71714C112.107 1.89744 112.45 2.1718 112.713 2.51617C112.923 2.79778 113.073 3.11924 113.154 3.46089L113.211 3.7081H114.762L114.7 3.3417C114.546 2.39569 114.037 1.54445 113.277 0.962252C112.391 0.295843 111.301 -0.0426165 110.194 0.00429615C109.393 -0.0119833 108.6 0.157226 107.876 0.498723C107.231 0.802017 106.682 1.27881 106.29 1.87607C105.922 2.45633 105.728 3.13062 105.731 3.81846C105.693 4.59008 105.908 5.35305 106.343 5.99043C106.725 6.50348 107.234 6.90814 107.819 7.16468C108.52 7.45236 109.239 7.68988 109.973 7.87543C110.606 8.04041 111.228 8.24235 111.837 8.48022C112.247 8.64676 112.609 8.91393 112.89 9.25719C113.178 9.65105 113.32 10.1336 113.29 10.6213C113.294 11.0601 113.172 11.4908 112.938 11.8618C112.686 12.2455 112.332 12.5513 111.916 12.7447C111.413 12.9795 110.863 13.0944 110.308 13.0802C109.255 13.0802 108.471 12.833 107.978 12.343C107.491 11.8891 107.171 11.2841 107.07 10.6257L107.031 10.352H105.511L105.537 10.6963C105.591 11.3844 105.826 12.0458 106.22 12.6122C106.644 13.2109 107.221 13.6849 107.89 13.9852Z" fill="#38302E"/>
<path d="M134.423 6.39706H127.158V0.132812H125.656V23.446V41.9871H127.158V31.0567H129.736C131.273 31.0567 132.458 30.6947 133.26 29.9796C133.672 29.5943 133.996 29.1231 134.208 28.5992C134.419 28.0752 134.514 27.5112 134.484 26.9468C134.508 26.3862 134.414 25.8269 134.206 25.3057C133.999 24.7845 133.684 24.3132 133.282 23.9228C132.493 23.1812 131.299 22.8059 129.731 22.8059H127.158V7.76557H134.436V14.564H135.934V0.132812H134.436L134.423 6.39706ZM127.158 29.6485V24.2098H129.736C130.894 24.2098 131.736 24.4481 132.242 24.9072C132.503 25.1752 132.704 25.4955 132.833 25.847C132.961 26.1986 133.013 26.5734 132.987 26.9468C132.987 28.7876 131.951 29.6485 129.736 29.6485H127.158Z" fill="#38302E"/>
<path d="M148.846 0.136719H147.344V14.3383H153.881V12.9698H148.846V0.136719Z" fill="#38302E"/>
<path d="M70.3655 29.7939C71.0163 29.0154 71.3568 28.0232 71.3215 27.0083C71.3437 26.441 71.2456 25.8754 71.0337 25.3488C70.8219 24.8223 70.501 24.3467 70.0924 23.9534C69.2818 23.1897 68.0704 22.8057 66.4889 22.8057H62.4492V37.0073H63.9514V31.2286H66.4272L69.8898 37.0073H71.6739L68.0704 31.0653C68.9542 30.9062 69.761 30.4593 70.3655 29.7939ZM69.7796 27.0083C69.7984 27.3893 69.738 27.7701 69.6023 28.1265C69.4665 28.4829 69.2584 28.8071 68.9911 29.0787C68.4624 29.5952 67.6342 29.8601 66.5285 29.8601H63.9514V24.2095H66.4889C68.7356 24.2095 69.7796 25.1012 69.7796 27.0083Z" fill="#38302E"/>
<path d="M92.0351 23.6094C90.9627 22.9947 89.7462 22.6778 88.5109 22.6911C87.7485 22.6864 86.9902 22.8026 86.2642 23.0355L73.7708 8.37478C74.6201 8.20702 75.3927 7.76882 75.9734 7.12545C76.6241 6.3452 76.9645 5.35172 76.9294 4.33547C76.9518 3.76812 76.8539 3.20245 76.642 2.67584C76.4301 2.14923 76.1092 1.67367 75.7003 1.2806C74.8897 0.521295 73.6783 0.132812 72.1012 0.132812H68.0615V14.3388H69.5593V8.55578H72.0703L84.9205 23.6491C83.8978 24.2581 83.0624 25.1379 82.5065 26.1919C81.9244 27.3488 81.6212 28.6265 81.6212 29.9222C81.6212 31.2179 81.9244 32.4955 82.5065 33.6525C83.071 34.7306 83.9276 35.6272 84.9778 36.2394C86.0556 36.8405 87.2686 37.156 88.502 37.156C89.7355 37.156 90.9485 36.8405 92.0263 36.2394C93.0755 35.6259 93.9317 34.7296 94.4976 33.6525C95.0798 32.4947 95.383 31.2164 95.383 29.92C95.383 28.6236 95.0798 27.3452 94.4976 26.1875C93.9314 25.1158 93.0788 24.2231 92.0351 23.6094ZM87.2554 24.2098C87.6649 24.1204 88.0829 24.076 88.502 24.0773C89.4596 24.0645 90.403 24.31 91.2333 24.7881C92.0497 25.2673 92.714 25.9683 93.1496 26.8099C93.6135 27.78 93.8544 28.842 93.8544 29.9178C93.8544 30.9935 93.6135 32.0555 93.1496 33.0256C92.714 33.8661 92.0495 34.5656 91.2333 35.0431C90.3983 35.5121 89.4571 35.7584 88.4998 35.7584C87.5426 35.7584 86.6014 35.5121 85.7664 35.0431C84.9474 34.5644 84.28 33.8635 83.8413 33.0212C83.3483 32.0675 83.1028 31.0048 83.1276 29.931C83.1013 28.8491 83.3451 27.7778 83.8369 26.8143C84.2799 25.9737 84.9481 25.2735 85.7664 24.7925C86.2023 24.5365 86.6747 24.3489 87.1672 24.2362H87.273L87.2554 24.2098ZM75.3611 4.34429C75.3802 4.72638 75.3195 5.10826 75.183 5.46553C75.0464 5.82279 74.837 6.14757 74.5681 6.41912C74.0395 6.93562 73.2113 7.19609 72.1056 7.19609H69.5285V1.54105H72.0924C74.3302 1.54105 75.3787 2.42839 75.3787 4.33547L75.3611 4.34429Z" fill="#38302E"/>
<path d="M110.335 22.8145H106.256V42.0089H107.776V31.0564H110.353C111.89 31.0564 113.075 30.6944 113.877 29.9793C114.291 29.5947 114.615 29.1237 114.826 28.5996C115.038 28.0754 115.132 27.5111 115.102 26.9465C115.126 26.3862 115.032 25.8271 114.826 25.3059C114.619 24.7847 114.305 24.3133 113.903 23.9225C113.097 23.1809 111.903 22.8145 110.335 22.8145ZM113.586 26.9553C113.586 28.7962 112.555 29.657 110.335 29.657H107.776V24.2095H110.353C111.511 24.2095 112.357 24.4478 112.859 24.9069C113.117 25.1764 113.315 25.4974 113.44 25.8489C113.566 26.2003 113.615 26.5744 113.586 26.9465V26.9553Z" fill="#38302E"/>
<path d="M145.066 37.0117H152.551V35.6388H146.569V30.5709H151.969V29.2023H146.569V24.1742H152.551V22.8057H145.066V37.0117Z" fill="#38302E"/>
<path d="M173.04 24.6909C171.874 23.6279 170.384 22.9902 168.811 22.881V8.60875L173.282 0.132812H171.582L168.058 7.02833L164.511 0.132812H162.798L167.313 8.60875V22.8148H163.41V37.0164H167.529C169.89 37.0164 171.745 36.3895 173.04 35.149C174.335 33.9085 175 32.1559 175 29.9354C175 27.7149 174.34 25.9447 173.04 24.6909ZM171.974 25.6842C172.974 26.6863 173.481 28.1122 173.481 29.9266C173.481 31.741 172.974 33.1404 171.974 34.1381C170.974 35.1358 169.476 35.639 167.529 35.639H164.912V24.1612H167.529C169.472 24.1744 170.97 24.6821 171.974 25.6842Z" fill="#38302E"/>
</g>
<defs>
<clipPath id="clip0_63_2366">
<rect width="40" height="37" fill="white"/>
</clipPath>
<clipPath id="clip1_63_2366">
<rect width="135" height="42" fill="white" transform="translate(40)"/>
</clipPath>
</defs>
</svg>
