<svg width="60" height="43" viewBox="0 0 60 43" fill="none" xmlns="http://www.w3.org/2000/svg">
<path d="M25.1833 3.4375C24.7711 3.4375 24.4963 3.85 24.4963 4.125V7.5625H23.1222V4.125C23.1222 3.7125 22.8474 3.4375 22.4352 3.4375C22.023 3.4375 21.7481 3.85 21.7481 4.125V7.5625H20.3741V4.125C20.3741 3.7125 20.0993 3.4375 19.687 3.4375C19.2748 3.4375 19 3.85 19 4.125V8.6625C19 9.9 19.9618 10.8625 21.0611 11V20.625C21.0611 21.45 21.6107 22 22.4352 22C23.2596 22 23.8092 21.45 23.8092 20.625V11C24.9085 10.8625 25.8704 9.9 25.8704 8.6625V4.125C25.8704 3.85 25.5955 3.4375 25.1833 3.4375ZM27.9315 4.125V12.375H29.3055V20.625C29.3055 21.45 29.8552 22 30.6796 22C31.504 22 32.0537 21.45 32.0537 20.625V0C29.7177 0 27.9315 1.7875 27.9315 4.125ZM37.5499 2.75C35.6263 2.75 34.1148 4.8125 34.1148 7.2875C33.9774 8.9375 34.8018 10.45 36.1759 11.4125V20.625C36.1759 21.45 36.7255 22 37.5499 22C38.3744 22 38.924 21.45 38.924 20.625V11.4125C40.2981 10.45 41.1225 8.9375 40.9851 7.2875C40.9851 4.8125 39.4736 2.75 37.5499 2.75Z" fill="black"/>
<path d="M3.94 35.6C3.94 38.1733 4.08 40.2267 4.36 41.76C3.93333 41.92 3.48 42 3 42C2.52 42 2.1 41.8467 1.74 41.54C1.39333 41.2333 1.22 40.8133 1.22 40.28C1.22 39.7333 1.28667 38.7067 1.42 37.2C1.55333 35.6933 1.62 34.5267 1.62 33.7C1.62 31.66 1.48 29.6933 1.2 27.8C2.18667 27.88 3.51333 27.92 5.18 27.92C6.84667 27.92 8.44 27.8 9.96 27.56C10.12 27.8533 10.2 28.2067 10.2 28.62C10.2 29.02 10.04 29.38 9.72 29.7C9.41333 30.0067 9.02667 30.16 8.56 30.16C8.10667 30.16 7.37333 30.0933 6.36 29.96C5.36 29.8267 4.62 29.76 4.14 29.76C4.03333 31.2133 3.96667 32.5467 3.94 33.76C4.71333 33.84 5.56667 33.88 6.5 33.88C7.44667 33.88 8.26667 33.74 8.96 33.46C9.12 33.7533 9.2 34.1067 9.2 34.52C9.2 34.92 9.04 35.2867 8.72 35.62C8.41333 35.94 8.04667 36.1 7.62 36.1C7.19333 36.1 6.58 36.02 5.78 35.86C4.98 35.6867 4.36667 35.6 3.94 35.6ZM40.8179 27.24C41.2445 27.08 41.6845 27 42.1379 27C42.5912 27 42.9645 27.1533 43.2579 27.46C43.5512 27.7533 43.6979 28.1267 43.6979 28.58C43.6979 29.02 43.6312 30.0733 43.4979 31.74C43.3645 33.3933 43.2979 35.0267 43.2979 36.64C43.2979 38.24 43.4579 39.9467 43.7779 41.76C43.2979 41.92 42.7979 42 42.2779 42C41.3979 42 40.9579 41.38 40.9579 40.14C40.9579 39.7267 41.0445 38.9867 41.2179 37.92C40.6579 39.1067 40.1579 39.9867 39.7179 40.56C39.2912 41.1333 38.8712 41.54 38.4579 41.78C38.0579 42.0067 37.6312 42.12 37.1779 42.12C36.1645 42.12 35.3845 41.7467 34.8379 41C34.3045 40.2533 34.0379 39.3333 34.0379 38.24C34.0379 37.1467 34.2312 36.12 34.6179 35.16C35.0179 34.1867 35.6112 33.38 36.3979 32.74C37.1979 32.0867 38.0445 31.76 38.9379 31.76C39.8312 31.76 40.6045 31.88 41.2579 32.12C41.2312 30.4 41.0845 28.7733 40.8179 27.24ZM41.2579 33.82C40.6045 33.58 39.8979 33.46 39.1379 33.46C38.3779 33.46 37.7245 33.68 37.1779 34.12C36.7245 35.2 36.4979 36.4067 36.4979 37.74C36.4979 38.3533 36.5845 38.94 36.7579 39.5C36.9312 40.06 37.2179 40.34 37.6179 40.34C38.2312 40.34 38.9245 39.6533 39.6979 38.28C40.4845 36.9067 41.0045 35.42 41.2579 33.82ZM45.7806 32.06C46.2073 31.94 46.6339 31.88 47.0606 31.88C47.5006 31.88 47.8739 32.0133 48.1806 32.28C48.4873 32.5467 48.6406 32.8933 48.6406 33.32C48.6406 33.7333 48.5673 34.46 48.4206 35.5C48.2873 36.5267 48.2206 37.3267 48.2206 37.9C48.2206 39.3933 48.3606 40.68 48.6406 41.76C48.2273 41.92 47.7806 42 47.3006 42C46.8206 42 46.4406 41.8933 46.1606 41.68C45.8806 41.4533 45.7406 41.1333 45.7406 40.72C45.7406 40.2933 45.8206 39.6 45.9806 38.64C46.1406 37.68 46.2206 36.8867 46.2206 36.26C46.2206 34.5933 46.0739 33.1933 45.7806 32.06ZM46.0406 27.54C46.5073 27.3267 46.9673 27.22 47.4206 27.22C47.8739 27.22 48.2073 27.34 48.4206 27.58C48.6473 27.8067 48.7606 28.1467 48.7606 28.6C48.7606 29.0533 48.6073 29.4533 48.3006 29.8C48.0073 30.1467 47.6206 30.32 47.1406 30.32C46.1539 30.32 45.6606 29.8067 45.6606 28.78C45.6606 28.3267 45.7873 27.9133 46.0406 27.54ZM52.6686 37.46C52.6686 38.42 52.822 39.18 53.1286 39.74C53.4353 40.2867 53.9486 40.56 54.6686 40.56C55.3886 40.56 55.9486 40.32 56.3486 39.84C56.762 39.3467 56.9686 38.7533 56.9686 38.06C57.422 38.06 57.8153 38.1733 58.1486 38.4C58.482 38.6267 58.6486 38.94 58.6486 39.34C58.6486 40.1667 58.2086 40.86 57.3286 41.42C56.4486 41.9667 55.522 42.24 54.5486 42.24C53.0286 42.24 51.9286 41.8333 51.2486 41.02C50.5686 40.1933 50.2286 38.9733 50.2286 37.36C50.2286 35.7467 50.682 34.3933 51.5886 33.3C52.5086 32.1933 53.7286 31.64 55.2486 31.64C56.2886 31.64 57.122 31.88 57.7486 32.36C58.3886 32.8267 58.7086 33.56 58.7086 34.56C58.7086 35.5467 58.2553 36.2933 57.3486 36.8C56.4553 37.2933 55.362 37.54 54.0686 37.54C53.6153 37.54 53.1486 37.5133 52.6686 37.46ZM52.6886 35.88C53.0886 35.96 53.5086 36 53.9486 36C54.9086 36 55.7153 35.82 56.3686 35.46C56.4486 35.14 56.4886 34.8867 56.4886 34.7C56.4886 34.2333 56.322 33.88 55.9886 33.64C55.6553 33.4 55.1953 33.28 54.6086 33.28C54.0353 33.28 53.5153 33.4667 53.0486 33.84C52.8086 34.5333 52.6886 35.2133 52.6886 35.88Z" fill="black"/>
<path d="M16.9383 35.9146C17.1383 35.861 17.344 35.9797 17.3976 36.1798C17.4512 36.3798 17.6568 36.4985 17.8568 36.4449C18.0569 36.3913 18.1756 36.1857 18.122 35.9857C17.9612 35.3855 17.3443 35.0293 16.7442 35.1902C16.5441 35.2438 16.4254 35.4494 16.479 35.6494C16.5326 35.8495 16.7382 35.9682 16.9383 35.9146Z" fill="black"/>
<path d="M22.1475 35.5541C21.744 34.0484 20.5138 32.9832 19.0344 32.617C18.7931 32.5572 18.5627 32.4285 18.3589 32.2516C17.4881 31.496 16.2261 31.1879 14.9844 31.5206C13.0785 32.0313 11.8669 33.8916 12.3565 35.7188C12.3984 35.8751 12.4515 36.026 12.5149 36.1707C12.6912 36.5733 12.747 37.036 12.663 37.4596C12.5656 37.9511 12.5765 38.4719 12.7147 38.9874C13.1971 40.7879 15.0477 41.8564 16.8482 41.3739C17.0511 41.3196 17.2451 41.2477 17.4287 41.1602C17.5999 41.0787 17.775 41.0258 17.9484 41.0088C18.2204 40.9822 18.4944 40.9328 18.768 40.8595C21.2086 40.2056 22.7635 37.853 22.1475 35.5541ZM17.5616 38.724C16.2947 39.0635 14.9923 38.3116 14.6529 37.0446C14.3134 35.7776 15.0653 34.4753 16.3322 34.1358C17.5992 33.7963 18.9015 34.5482 19.241 35.8152C19.5805 37.0822 18.8286 38.3845 17.5616 38.724Z" fill="black"/>
<path d="M27.5121 37.125C27.5121 36.9179 27.68 36.75 27.8871 36.75C28.0942 36.75 28.2621 36.5821 28.2621 36.375C28.2621 36.1679 28.0942 36 27.8871 36C27.2658 36 26.7621 36.5037 26.7621 37.125C26.7621 37.3321 26.93 37.5 27.1371 37.5C27.3442 37.5 27.5121 37.3321 27.5121 37.125Z" fill="black"/>
<path d="M28.5121 32C26.9534 32 25.606 32.9126 24.8694 34.2468C24.7493 34.4644 24.5653 34.6537 24.3417 34.8047C23.3864 35.4503 22.7621 36.5895 22.7621 37.875C22.7621 39.8482 24.2455 41.5 26.1371 41.5C26.299 41.5 26.4585 41.4878 26.6146 41.464C27.0492 41.3979 27.5106 41.4637 27.8979 41.6545C28.3475 41.8758 28.8534 42 29.3871 42C31.2511 42 32.7621 40.489 32.7621 38.625C32.7621 38.4149 32.7429 38.209 32.706 38.0089C32.6715 37.8225 32.6657 37.6397 32.6942 37.4678C32.7389 37.1982 32.7621 36.9206 32.7621 36.6375C32.7621 34.1107 30.8922 32 28.5121 32ZM30.3871 37.25C30.3871 38.5617 29.3238 39.625 28.0121 39.625C26.7005 39.625 25.6371 38.5617 25.6371 37.25C25.6371 35.9383 26.7005 34.875 28.0121 34.875C29.3238 34.875 30.3871 35.9383 30.3871 37.25Z" fill="black"/>
</svg>
