<svg width="90" height="90" viewBox="0 0 90 90" fill="none" xmlns="http://www.w3.org/2000/svg">
<path d="M4.5 45C4.5 34.2587 8.76695 23.9574 16.3622 16.3622C23.9574 8.76695 34.2587 4.5 45 4.5C55.7413 4.5 66.0426 8.76695 73.6378 16.3622C81.233 23.9574 85.5 34.2587 85.5 45C85.5 55.7413 81.233 66.0426 73.6378 73.6378C66.0426 81.233 55.7413 85.5 45 85.5C34.2587 85.5 23.9574 81.233 16.3622 73.6378C8.76695 66.0426 4.5 55.7413 4.5 45Z" stroke="#FF0000" stroke-width="9"/>
<path fill-rule="evenodd" clip-rule="evenodd" d="M45 38.3722L35.9936 29.3657C35.8185 29.1915 35.6104 29.0538 35.3816 28.9607C35.1528 28.8675 34.9078 28.8208 34.6607 28.8232C34.4137 28.8256 34.1696 28.8771 33.9426 28.9746C33.7156 29.0722 33.5103 29.2139 33.3386 29.3915L29.3915 33.3386C29.039 33.6889 28.8387 34.1639 28.8339 34.6608C28.8291 35.1577 29.0201 35.6365 29.3657 35.9936L38.3657 45L29.3657 54.0065C29.1915 54.1816 29.0538 54.3896 28.9607 54.6184C28.8675 54.8473 28.8208 55.0923 28.8232 55.3393C28.8256 55.5864 28.8771 55.8305 28.9746 56.0574C29.0722 56.2844 29.2139 56.4897 29.3915 56.6615L33.3386 60.6086C34.065 61.3415 35.2672 61.3607 35.9936 60.6343L45 51.6343L54.0065 60.6343C54.1816 60.8085 54.3896 60.9462 54.6184 61.0394C54.8473 61.1325 55.0923 61.1792 55.3393 61.1768C55.5864 61.1745 55.8305 61.123 56.0574 61.0254C56.2844 60.9279 56.4897 60.7862 56.6615 60.6086L60.6086 56.6615C60.9611 56.3112 61.1614 55.8361 61.1662 55.3392C61.171 54.8423 60.9799 54.3635 60.6343 54.0065L51.6343 45L60.6343 35.9936C60.8085 35.8185 60.9462 35.6104 61.0394 35.3816C61.1325 35.1528 61.1792 34.9078 61.1768 34.6607C61.1745 34.4137 61.123 34.1696 61.0254 33.9426C60.9279 33.7156 60.7862 33.5103 60.6086 33.3386L56.6615 29.3915C56.3112 29.039 55.8361 28.8387 55.3392 28.8339C54.8423 28.8291 54.3635 29.0201 54.0065 29.3657L45 38.3722Z" fill="#FF0000"/>
</svg>
