<svg width="90" height="90" viewBox="0 0 90 90" fill="none" xmlns="http://www.w3.org/2000/svg">
<path fill-rule="evenodd" clip-rule="evenodd" d="M45 0C20.1473 0 0 20.1473 0 45C0 69.8527 20.1473 90 45 90C69.8527 90 90 69.8527 90 45C90 20.1473 69.8527 0 45 0ZM45 81C25.1496 81 9 64.8504 9 45C9 25.1496 25.1496 9 45 9C64.8504 9 81 25.1496 81 45C81 64.8504 64.8504 81 45 81ZM61.9459 28.9226L68.3091 35.2859L40.5 63.2115L23.8184 46.5298L30.1816 40.1666L40.5 50.4849L61.9459 28.9226Z" fill="#121D33"/>
</svg>
